<svg xmlns="http://www.w3.org/2000/svg" xmlns:xlink="http://www.w3.org/1999/xlink" width="500" zoomAndPan="magnify" viewBox="0 0 375 374.999991" height="500" preserveAspectRatio="xMidYMid meet" version="1.2"><defs><clipPath id="f03b508ea0"><path d="M 147.453125 114.503906 L 227.703125 114.503906 L 227.703125 154.253906 L 147.453125 154.253906 Z M 147.453125 114.503906 "/></clipPath></defs><g id="d7c74df746"><rect x="0" width="375" y="0" height="374.999991" style="fill:#ffffff;fill-opacity:1;stroke:none;"/><rect x="0" width="375" y="0" height="374.999991" style="fill:#f7f7f7;fill-opacity:1;stroke:none;"/><g style="fill:#000000;fill-opacity:1;"><g transform="translate(65.374199, 222.543558)"><path style="stroke:none" d="M 51.734375 -56.984375 L 51.734375 0 L 45.609375 0 L 45.609375 -55.046875 C 42.910156 -53.921875 40.609375 -52.132812 38.703125 -49.6875 C 36.796875 -47.238281 35.195312 -44.359375 33.90625 -41.046875 C 32.613281 -37.734375 31.585938 -34.207031 30.828125 -30.46875 C 30.078125 -26.726562 29.515625 -22.988281 29.140625 -19.25 C 28.765625 -15.507812 28.507812 -11.984375 28.375 -8.671875 C 28.238281 -5.367188 28.171875 -2.476562 28.171875 0 L 27.359375 0 L 5.5625 -50.203125 L 3.3125 -55.53125 L 3.3125 0 L 2.828125 0 L 2.828125 -56.984375 L 9.53125 -56.984375 L 27.921875 -14.453125 C 28.242188 -18.160156 28.726562 -21.992188 29.375 -25.953125 C 30.019531 -29.910156 30.90625 -33.726562 32.03125 -37.40625 C 33.164062 -41.09375 34.617188 -44.414062 36.390625 -47.375 C 38.171875 -50.34375 40.3125 -52.6875 42.8125 -54.40625 C 45.320312 -56.125 48.296875 -56.984375 51.734375 -56.984375 Z M 51.734375 -56.984375 "/></g></g><g style="fill:#000000;fill-opacity:1;"><g transform="translate(121.550831, 222.543558)"><path style="stroke:none" d="M 9.046875 -38.015625 L 9.046875 -0.640625 L 22.6875 -0.640625 C 26.175781 -0.640625 29.035156 -1.5 31.265625 -3.21875 C 33.503906 -4.945312 35.351562 -7.859375 36.8125 -11.953125 L 34.953125 0 L 2.828125 0 L 2.828125 -56.984375 L 35.4375 -56.984375 L 35.4375 -50.53125 C 33.550781 -52.363281 31.71875 -53.695312 29.9375 -54.53125 C 28.164062 -55.363281 26.160156 -55.882812 23.921875 -56.09375 C 21.691406 -56.3125 18.9375 -56.421875 15.65625 -56.421875 L 9.046875 -56.421875 L 9.046875 -43.34375 C 9.046875 -39.6875 9.660156 -36.890625 10.890625 -34.953125 C 12.128906 -33.015625 13.988281 -31.707031 16.46875 -31.03125 C 18.945312 -30.363281 22.039062 -30.03125 25.75 -30.03125 L 25.75 -23.65625 C 24.5625 -25 23.144531 -26.0625 21.5 -26.84375 C 19.863281 -27.625 18.195312 -28.429688 16.5 -29.265625 C 14.8125 -30.097656 13.289062 -31.171875 11.9375 -32.484375 C 10.59375 -33.804688 9.628906 -35.648438 9.046875 -38.015625 Z M 9.046875 -38.015625 "/></g></g><g style="fill:#000000;fill-opacity:1;"><g transform="translate(162.795494, 222.543558)"><path style="stroke:none" d="M 21.234375 0 L 2.828125 0 L 2.828125 -56.984375 L 21.234375 -56.984375 C 25.109375 -56.984375 28.738281 -56.242188 32.125 -54.765625 C 35.519531 -53.285156 38.519531 -51.238281 41.125 -48.625 C 43.738281 -46.019531 45.785156 -42.992188 47.265625 -39.546875 C 48.742188 -36.109375 49.484375 -32.394531 49.484375 -28.40625 C 49.484375 -24.476562 48.742188 -20.789062 47.265625 -17.34375 C 45.785156 -13.90625 43.738281 -10.878906 41.125 -8.265625 C 38.519531 -5.660156 35.519531 -3.628906 32.125 -2.171875 C 28.738281 -0.722656 25.109375 0 21.234375 0 Z M 9.125 -56.421875 L 9.125 -0.640625 L 21.234375 -0.640625 C 24.296875 -0.640625 27.171875 -1.351562 29.859375 -2.78125 C 32.554688 -4.207031 34.925781 -6.195312 36.96875 -8.75 C 39.007812 -11.3125 40.609375 -14.257812 41.765625 -17.59375 C 42.921875 -20.925781 43.5 -24.53125 43.5 -28.40625 C 43.5 -32.28125 42.921875 -35.898438 41.765625 -39.265625 C 40.609375 -42.628906 39.007812 -45.601562 36.96875 -48.1875 C 34.925781 -50.769531 32.554688 -52.785156 29.859375 -54.234375 C 27.171875 -55.691406 24.296875 -56.421875 21.234375 -56.421875 Z M 9.125 -56.421875 "/></g></g><g style="fill:#000000;fill-opacity:1;"><g transform="translate(216.712162, 222.543558)"><path style="stroke:none" d="M 9.046875 -38.015625 L 9.046875 -0.640625 L 22.6875 -0.640625 C 26.175781 -0.640625 29.035156 -1.5 31.265625 -3.21875 C 33.503906 -4.945312 35.351562 -7.859375 36.8125 -11.953125 L 34.953125 0 L 2.828125 0 L 2.828125 -56.984375 L 35.4375 -56.984375 L 35.4375 -50.53125 C 33.550781 -52.363281 31.71875 -53.695312 29.9375 -54.53125 C 28.164062 -55.363281 26.160156 -55.882812 23.921875 -56.09375 C 21.691406 -56.3125 18.9375 -56.421875 15.65625 -56.421875 L 9.046875 -56.421875 L 9.046875 -43.34375 C 9.046875 -39.6875 9.660156 -36.890625 10.890625 -34.953125 C 12.128906 -33.015625 13.988281 -31.707031 16.46875 -31.03125 C 18.945312 -30.363281 22.039062 -30.03125 25.75 -30.03125 L 25.75 -23.65625 C 24.5625 -25 23.144531 -26.0625 21.5 -26.84375 C 19.863281 -27.625 18.195312 -28.429688 16.5 -29.265625 C 14.8125 -30.097656 13.289062 -31.171875 11.9375 -32.484375 C 10.59375 -33.804688 9.628906 -35.648438 9.046875 -38.015625 Z M 9.046875 -38.015625 "/></g></g><g style="fill:#000000;fill-opacity:1;"><g transform="translate(257.956825, 222.543558)"><path style="stroke:none" d="M 42.046875 0 L 32.9375 -21.875 C 29.488281 -21.550781 26.644531 -20.847656 24.40625 -19.765625 C 22.175781 -18.691406 20.375 -17.390625 19 -15.859375 C 17.632812 -14.328125 16.535156 -12.726562 15.703125 -11.0625 C 14.867188 -9.394531 14.128906 -7.832031 13.484375 -6.375 C 12.722656 -4.382812 11.898438 -2.726562 11.015625 -1.40625 C 10.128906 -0.09375 8.769531 0.535156 6.9375 0.484375 C 6.726562 0.429688 6.523438 0.375 6.328125 0.3125 C 6.140625 0.257812 5.914062 0.128906 5.65625 -0.078125 C 3.445312 -1.046875 2.554688 -3.390625 2.984375 -7.109375 C 3.203125 -8.878906 3.59375 -10.878906 4.15625 -13.109375 C 4.71875 -15.347656 5.484375 -17.757812 6.453125 -20.34375 C 7.910156 -24.21875 9.617188 -28.320312 11.578125 -32.65625 C 13.546875 -36.988281 15.617188 -41.265625 17.796875 -45.484375 C 19.972656 -49.710938 22.085938 -53.546875 24.140625 -56.984375 L 24.703125 -56.984375 L 48.828125 0 Z M 32.6875 -22.4375 L 20.828125 -50.046875 C 18.347656 -45.304688 15.859375 -40.3125 13.359375 -35.0625 C 10.859375 -29.820312 8.742188 -24.863281 7.015625 -20.1875 C 6.046875 -17.601562 5.28125 -15.207031 4.71875 -13 C 4.15625 -10.789062 3.765625 -8.828125 3.546875 -7.109375 C 3.492188 -5.429688 3.628906 -4.015625 3.953125 -2.859375 C 4.273438 -1.703125 4.921875 -0.960938 5.890625 -0.640625 C 6.160156 -0.585938 6.363281 -0.535156 6.5 -0.484375 C 6.632812 -0.429688 6.804688 -0.347656 7.015625 -0.234375 C 8.628906 -0.128906 9.835938 -0.695312 10.640625 -1.9375 C 11.453125 -3.175781 12.179688 -4.707031 12.828125 -6.53125 C 13.472656 -8.039062 14.226562 -9.644531 15.09375 -11.34375 C 15.957031 -13.039062 17.097656 -14.664062 18.515625 -16.21875 C 19.941406 -17.78125 21.785156 -19.125 24.046875 -20.25 C 26.304688 -21.382812 29.1875 -22.113281 32.6875 -22.4375 Z M 32.6875 -22.4375 "/></g></g><g clip-rule="nonzero" clip-path="url(#f03b508ea0)"><path style=" stroke:none;fill-rule:nonzero;fill:#000000;fill-opacity:1;" d="M 185.613281 114.710938 C 185.753906 114.625 185.90625 114.566406 186.066406 114.527344 C 186.355469 114.5 186.640625 114.507812 186.929688 114.550781 C 187.113281 114.597656 187.285156 114.675781 187.441406 114.785156 C 187.695312 114.929688 187.9375 115.085938 188.167969 115.257812 C 188.398438 115.425781 188.609375 115.621094 188.796875 115.832031 C 189.054688 116.140625 189.273438 116.472656 189.503906 116.796875 C 189.550781 116.863281 189.574219 116.9375 189.578125 117.019531 C 189.578125 117.726562 189.597656 118.433594 189.578125 119.140625 C 189.578125 119.277344 189.449219 119.414062 189.367188 119.554688 C 189.34375 119.601562 189.296875 119.632812 189.265625 119.679688 C 189.027344 120.070312 188.785156 120.457031 188.558594 120.855469 C 188.382812 121.15625 188.285156 121.515625 188.046875 121.761719 C 187.699219 122.132812 187.773438 122.632812 187.488281 123.011719 C 187.425781 123.121094 187.398438 123.238281 187.40625 123.367188 C 187.40625 123.957031 187.40625 124.550781 187.40625 125.144531 C 187.472656 125.484375 187.675781 125.691406 188.015625 125.765625 C 188.464844 125.792969 188.917969 125.765625 189.285156 126.085938 C 189.316406 126.105469 189.355469 126.117188 189.390625 126.121094 C 190.058594 126.207031 190.628906 126.519531 191.230469 126.765625 C 191.78125 127 192.292969 127.296875 192.765625 127.65625 C 193.242188 128.027344 193.6875 128.433594 194.097656 128.878906 C 194.46875 129.261719 194.816406 129.667969 195.144531 130.089844 C 195.441406 130.472656 195.691406 130.882812 195.980469 131.269531 C 196.300781 131.707031 196.636719 132.140625 196.96875 132.570312 C 197.253906 132.941406 197.539062 133.308594 197.832031 133.671875 C 197.960938 133.851562 198.109375 134.015625 198.273438 134.167969 C 198.964844 134.761719 199.648438 135.367188 200.375 135.917969 C 200.84375 136.246094 201.332031 136.535156 201.847656 136.78125 C 202.574219 137.152344 203.3125 137.492188 204.058594 137.839844 C 204.535156 138.066406 205.023438 138.277344 205.496094 138.515625 C 205.828125 138.6875 206.136719 138.886719 206.457031 139.074219 C 206.515625 139.105469 206.578125 139.117188 206.636719 139.144531 L 207.929688 139.789062 C 207.957031 139.800781 207.976562 139.820312 208 139.832031 C 208.382812 139.984375 208.769531 140.117188 209.140625 140.289062 C 209.511719 140.460938 209.816406 140.652344 210.148438 140.832031 C 210.179688 140.851562 210.207031 140.875 210.242188 140.890625 C 210.605469 141.035156 210.980469 141.160156 211.332031 141.328125 C 211.6875 141.496094 212.011719 141.691406 212.351562 141.878906 C 212.378906 141.898438 212.410156 141.917969 212.441406 141.9375 C 212.796875 142.085938 213.15625 142.21875 213.5 142.382812 C 213.886719 142.566406 214.261719 142.796875 214.648438 142.984375 C 214.949219 143.132812 215.261719 143.261719 215.566406 143.398438 C 215.984375 143.605469 216.402344 143.816406 216.820312 144.023438 C 216.855469 144.039062 216.882812 144.0625 216.914062 144.078125 L 218.148438 144.714844 C 218.214844 144.746094 218.285156 144.769531 218.359375 144.800781 C 218.84375 145.023438 219.332031 145.246094 219.820312 145.472656 C 220.109375 145.609375 220.398438 145.746094 220.679688 145.890625 C 220.769531 145.945312 220.851562 146.015625 220.921875 146.097656 C 221.144531 146.320312 221.277344 146.535156 221.070312 146.863281 C 220.945312 147.054688 221.171875 147.328125 221.46875 147.351562 C 221.914062 147.410156 222.332031 147.332031 222.722656 147.113281 C 222.800781 147.070312 222.882812 147.0625 222.972656 147.085938 C 223.160156 147.148438 223.347656 147.21875 223.527344 147.308594 C 223.8125 147.429688 224.085938 147.574219 224.339844 147.753906 C 224.910156 148.195312 225.453125 148.664062 225.972656 149.160156 C 226.199219 149.421875 226.386719 149.710938 226.535156 150.027344 C 226.769531 150.371094 226.964844 150.734375 227.117188 151.121094 C 227.3125 151.742188 227.683594 152.335938 227.550781 153.027344 C 227.535156 153.261719 227.40625 153.394531 227.175781 153.425781 C 226.71875 153.53125 226.289062 153.46875 225.882812 153.234375 C 225.8125 153.1875 225.738281 153.15625 225.65625 153.136719 C 225.046875 153.003906 224.429688 152.910156 223.808594 152.863281 C 220.878906 152.796875 217.953125 152.761719 215.023438 152.730469 C 210.820312 152.683594 206.617188 152.644531 202.417969 152.613281 C 201.679688 152.613281 200.941406 152.605469 200.203125 152.574219 C 198.964844 152.527344 197.730469 152.441406 196.492188 152.402344 C 195.222656 152.367188 193.949219 152.351562 192.679688 152.351562 C 189.21875 152.351562 185.753906 152.359375 182.285156 152.378906 C 180.234375 152.390625 178.179688 152.433594 176.125 152.46875 C 170.785156 152.558594 165.445312 152.675781 160.101562 152.738281 C 158.792969 152.753906 157.5 152.96875 156.199219 153.011719 C 154.675781 153.054688 153.152344 153.050781 151.632812 153.066406 C 151.398438 153.066406 151.164062 153.09375 150.933594 153.089844 C 150.324219 153.089844 149.832031 153.347656 149.359375 153.667969 C 149.320312 153.691406 149.28125 153.714844 149.238281 153.734375 C 149.007812 153.839844 148.777344 153.945312 148.546875 154.054688 C 148.0625 154.261719 147.480469 153.914062 147.519531 153.410156 C 147.550781 153.191406 147.601562 152.976562 147.671875 152.769531 C 147.71875 152.617188 147.757812 152.464844 147.789062 152.308594 C 147.828125 152.027344 147.839844 151.742188 148.089844 151.535156 C 148.128906 151.503906 148.128906 151.4375 148.15625 151.390625 C 148.367188 151.03125 148.546875 150.664062 148.765625 150.316406 C 148.941406 150.050781 149.132812 149.796875 149.339844 149.554688 C 149.476562 149.394531 149.628906 149.242188 149.789062 149.105469 C 150.050781 148.882812 150.316406 148.667969 150.589844 148.464844 C 150.695312 148.40625 150.800781 148.355469 150.914062 148.320312 C 151.023438 148.277344 151.125 148.222656 151.21875 148.152344 C 151.386719 147.992188 151.519531 148.023438 151.699219 148.152344 C 151.980469 148.410156 152.316406 148.539062 152.699219 148.539062 C 153.265625 148.503906 153.441406 148.191406 153.179688 147.726562 C 153.117188 147.597656 153.117188 147.46875 153.179688 147.335938 C 153.402344 146.941406 153.796875 146.730469 154.207031 146.539062 C 154.554688 146.375 154.886719 146.179688 155.230469 146 C 155.507812 145.851562 155.792969 145.703125 156.082031 145.5625 C 156.328125 145.441406 156.574219 145.324219 156.824219 145.214844 C 157.15625 145.066406 157.5 144.933594 157.828125 144.777344 C 158.15625 144.621094 158.472656 144.4375 158.792969 144.265625 C 158.851562 144.234375 158.902344 144.191406 158.957031 144.167969 C 159.46875 143.921875 159.976562 143.671875 160.488281 143.4375 C 160.816406 143.285156 161.160156 143.164062 161.484375 143.003906 C 161.808594 142.84375 162.136719 142.652344 162.460938 142.472656 C 162.472656 142.460938 162.488281 142.449219 162.503906 142.441406 C 162.886719 142.273438 163.265625 142.113281 163.648438 141.945312 C 163.707031 141.910156 163.765625 141.867188 163.816406 141.820312 C 163.894531 141.761719 163.972656 141.703125 164.058594 141.652344 C 164.246094 141.554688 164.441406 141.460938 164.636719 141.371094 C 164.988281 141.214844 165.34375 141.074219 165.683594 140.910156 C 166.058594 140.730469 166.425781 140.539062 166.792969 140.347656 C 166.832031 140.324219 166.871094 140.300781 166.914062 140.28125 C 167.429688 140.140625 167.851562 139.84375 168.300781 139.589844 C 168.617188 139.410156 168.972656 139.296875 169.300781 139.132812 C 169.628906 138.972656 169.910156 138.804688 170.214844 138.636719 C 170.246094 138.621094 170.269531 138.589844 170.304688 138.574219 C 170.683594 138.402344 171.070312 138.238281 171.441406 138.054688 C 171.703125 137.925781 171.953125 137.773438 172.207031 137.636719 C 172.578125 137.429688 172.949219 137.222656 173.316406 137.015625 C 173.535156 136.886719 173.75 136.753906 173.957031 136.597656 C 174.378906 136.300781 174.796875 136.007812 175.199219 135.6875 C 175.53125 135.421875 175.847656 135.136719 176.144531 134.832031 C 176.476562 134.503906 176.789062 134.160156 177.089844 133.804688 C 177.273438 133.589844 177.410156 133.335938 177.585938 133.105469 C 177.757812 132.878906 177.980469 132.628906 178.167969 132.382812 C 178.351562 132.140625 178.503906 131.886719 178.6875 131.644531 C 179.023438 131.210938 179.363281 130.785156 179.703125 130.355469 C 179.96875 130.023438 180.21875 129.683594 180.503906 129.363281 C 180.824219 129.007812 181.183594 128.679688 181.511719 128.324219 C 181.835938 127.972656 182.285156 127.765625 182.652344 127.46875 C 183.003906 127.175781 183.386719 126.945312 183.8125 126.78125 C 184.144531 126.625 184.464844 126.445312 184.769531 126.238281 C 184.769531 126.238281 184.785156 126.226562 184.792969 126.226562 C 185.378906 126.167969 185.839844 125.746094 186.464844 125.765625 C 186.882812 125.785156 186.992188 125.65625 186.972656 125.242188 C 186.953125 124.828125 186.894531 124.375 186.898438 123.945312 C 186.886719 123.5625 186.925781 123.1875 187.023438 122.816406 C 187.175781 122.421875 187.363281 122.046875 187.585938 121.6875 C 187.753906 121.386719 187.9375 121.09375 188.121094 120.804688 C 188.308594 120.515625 188.539062 120.25 188.695312 119.949219 C 188.929688 119.503906 189.269531 119.105469 189.167969 118.53125 C 189.089844 118.074219 189.167969 117.59375 189.140625 117.128906 C 189.105469 116.996094 189.046875 116.878906 188.964844 116.769531 C 188.921875 116.703125 188.851562 116.648438 188.824219 116.578125 C 188.582031 115.9375 188.058594 115.597656 187.449219 115.285156 C 187.066406 115.121094 186.667969 115.03125 186.25 115.015625 C 186.039062 114.976562 185.835938 114.917969 185.636719 114.84375 C 185.617188 114.796875 185.613281 114.753906 185.613281 114.710938 Z M 222.070312 151.136719 L 222.070312 151.042969 C 221.445312 150.6875 220.816406 150.3125 220.191406 149.976562 C 219.617188 149.667969 219.007812 149.421875 218.4375 149.109375 C 217.757812 148.734375 217.105469 148.3125 216.359375 148.066406 C 216.308594 148.046875 216.261719 148.019531 216.214844 147.988281 C 215.949219 147.824219 215.699219 147.640625 215.417969 147.496094 C 214.410156 146.976562 213.390625 146.472656 212.375 145.960938 C 212.335938 145.941406 212.296875 145.914062 212.257812 145.890625 C 211.914062 145.683594 211.570312 145.484375 211.210938 145.296875 C 210.921875 145.140625 210.613281 145.011719 210.324219 144.859375 C 209.5 144.417969 208.679688 143.96875 207.855469 143.527344 C 207.554688 143.367188 207.25 143.21875 206.953125 143.054688 C 206.65625 142.894531 206.359375 142.703125 206.054688 142.542969 C 205.699219 142.355469 205.328125 142.195312 204.972656 142.011719 C 204.136719 141.578125 203.324219 141.136719 202.492188 140.707031 C 202.195312 140.550781 201.867188 140.429688 201.574219 140.273438 C 200.917969 139.925781 200.277344 139.558594 199.621094 139.21875 C 198.964844 138.882812 198.289062 138.5625 197.625 138.230469 C 197.308594 138.070312 196.996094 137.914062 196.675781 137.746094 C 196.195312 137.480469 195.730469 137.1875 195.238281 136.945312 C 194.820312 136.734375 194.363281 136.574219 193.921875 136.394531 C 193.871094 136.367188 193.824219 136.339844 193.78125 136.3125 C 193.296875 136.039062 192.820312 135.753906 192.328125 135.496094 C 191.800781 135.21875 191.257812 134.976562 190.726562 134.707031 C 190.457031 134.574219 190.207031 134.414062 189.941406 134.277344 C 189.585938 134.089844 189.234375 133.902344 188.867188 133.742188 C 188.589844 133.621094 188.285156 133.550781 188.003906 133.4375 C 187.699219 133.300781 187.390625 133.292969 187.078125 133.414062 C 186.671875 133.585938 186.285156 133.789062 185.890625 133.984375 C 185.621094 134.121094 185.351562 134.261719 185.089844 134.402344 C 184.769531 134.578125 184.460938 134.761719 184.148438 134.941406 C 183.875 135.101562 183.609375 135.277344 183.324219 135.421875 C 182.984375 135.59375 182.625 135.734375 182.277344 135.890625 C 182.246094 135.902344 182.222656 135.9375 182.191406 135.957031 C 181.671875 136.257812 181.160156 136.570312 180.632812 136.855469 C 180.304688 137.03125 179.949219 137.160156 179.609375 137.324219 C 179.378906 137.433594 179.152344 137.554688 178.925781 137.679688 C 178.574219 137.875 178.230469 138.09375 177.871094 138.277344 C 177.355469 138.546875 176.824219 138.800781 176.308594 139.074219 C 175.914062 139.28125 175.53125 139.511719 175.132812 139.722656 C 174.84375 139.878906 174.539062 140.011719 174.246094 140.160156 C 173.585938 140.496094 172.929688 140.835938 172.269531 141.175781 C 172.238281 141.191406 172.207031 141.210938 172.175781 141.230469 C 171.878906 141.40625 171.585938 141.597656 171.285156 141.761719 C 170.742188 142.0625 170.183594 142.339844 169.644531 142.640625 C 168.929688 143.027344 168.222656 143.441406 167.507812 143.859375 C 167.089844 144.089844 166.671875 144.320312 166.253906 144.539062 C 165.921875 144.710938 165.578125 144.863281 165.242188 145.027344 C 164.964844 145.148438 164.699219 145.289062 164.441406 145.445312 C 163.859375 145.828125 163.300781 146.242188 162.617188 146.453125 C 162.589844 146.464844 162.566406 146.476562 162.539062 146.492188 C 161.855469 146.910156 161.175781 147.324219 160.476562 147.722656 C 159.921875 148.03125 159.335938 148.296875 158.773438 148.597656 C 158.210938 148.902344 157.726562 149.207031 157.195312 149.492188 C 156.660156 149.773438 156.089844 150.050781 155.539062 150.332031 C 155.496094 150.351562 155.464844 150.386719 155.425781 150.410156 C 155.128906 150.601562 154.828125 150.789062 154.53125 150.984375 C 154.324219 151.117188 154.128906 151.261719 153.925781 151.398438 C 154.023438 151.460938 154.125 151.492188 154.242188 151.488281 C 154.492188 151.488281 154.746094 151.476562 154.996094 151.472656 C 156.15625 151.460938 157.3125 151.472656 158.46875 151.429688 C 159.464844 151.394531 160.460938 151.246094 161.457031 151.222656 C 166.433594 151.144531 171.410156 151.101562 176.382812 151.03125 C 177.757812 151.015625 179.125 150.925781 180.5 150.914062 C 182.410156 150.890625 184.328125 150.886719 186.242188 150.914062 C 188.152344 150.9375 190.101562 151.0625 192.035156 151.097656 C 194.621094 151.148438 197.207031 151.171875 199.792969 151.175781 C 204.707031 151.1875 209.621094 151.175781 214.53125 151.175781 C 216.832031 151.175781 219.144531 151.207031 221.449219 151.214844 C 221.660156 151.203125 221.867188 151.179688 222.070312 151.136719 Z M 222.070312 151.136719 "/></g><path style=" stroke:none;fill-rule:nonzero;fill:#000000;fill-opacity:1;" d="M 181.964844 117.5625 C 181.8125 117.328125 181.851562 117.238281 181.964844 117.109375 C 182.148438 116.914062 182.273438 116.660156 182.441406 116.449219 C 182.726562 116.089844 182.882812 115.617188 183.359375 115.425781 C 183.449219 115.402344 183.539062 115.398438 183.632812 115.40625 C 183.652344 115.429688 183.667969 115.453125 183.683594 115.476562 C 183.457031 115.792969 183.230469 116.113281 183 116.429688 C 182.847656 116.648438 182.6875 116.855469 182.515625 117.054688 C 182.363281 117.234375 182.167969 117.382812 181.964844 117.5625 Z M 181.964844 117.5625 "/><path style=" stroke:none;fill-rule:nonzero;fill:#000000;fill-opacity:1;" d="M 181.464844 117.976562 C 181.347656 118.074219 181.226562 118.183594 181.074219 118.035156 C 181.039062 117.996094 181.089844 117.824219 181.105469 117.824219 C 181.230469 117.832031 181.355469 117.84375 181.480469 117.863281 Z M 181.464844 117.976562 "/></g></svg>